<svg class="h-6 w-6" viewBox="0 0 256 252" xmlns="http://www.w3.org/2000/svg"><path fill="#ffffff" d="M235.648 194.212c-13.918-.347-24.705 1.045-33.752 4.872-2.61 1.043-6.786 1.044-7.134 4.35 1.392 1.392 1.566 3.654 2.784 5.567 2.09 3.479 5.741 8.177 9.047 10.614 3.653 2.783 7.308 5.566 11.134 8.002 6.786 4.176 14.442 6.611 21.053 10.787 3.829 2.434 7.654 5.568 11.482 8.177 1.914 1.39 3.131 3.654 5.568 4.523v-.521c-1.219-1.567-1.567-3.828-2.784-5.568-1.738-1.74-3.48-3.306-5.221-5.046-5.048-6.784-11.308-12.7-18.093-17.571-5.396-3.83-17.75-9.047-20.008-15.485 0 0-.175-.173-.348-.347 3.827-.348 8.35-1.566 12.005-2.436 5.912-1.565 11.308-1.217 17.398-2.784 2.783-.696 5.567-1.566 8.35-2.436v-1.565c-3.13-3.132-5.392-7.307-8.698-10.265-8.873-7.657-18.617-15.137-28.837-21.055-5.394-3.132-12.005-5.048-17.75-7.654-2.09-.696-5.567-1.566-6.784-3.306-3.133-3.827-4.698-8.699-7.135-13.047-5.04-9.568-9.866-20.184-14.576-30.23-3.13-6.786-5.044-13.572-8.872-19.834-17.92-29.577-37.406-47.497-67.33-65.07-6.438-3.653-14.093-5.219-22.27-7.132-4.348-.175-8.699-.522-13.046-.697-2.784-1.218-5.568-4.523-8.004-6.089C34.006 4.573 8.429-8.996 1.122 8.924c-4.698 11.308 6.96 22.441 10.96 28.143 2.96 4.001 6.786 8.524 8.874 13.046 1.392 3.132 1.566 6.263 2.958 9.569 2.784 7.654 5.221 16.178 8.872 23.311 1.914 3.653 4.001 7.48 6.437 10.786 1.392 2.088 3.827 2.957 4.348 5.915-2.435 3.48-2.61 8.7-4.003 13.049-6.263 19.66-3.826 44.017 5.046 58.457 2.784 4.348 9.395 13.572 18.268 10.091 7.83-3.132 6.09-13.046 8.35-21.75.522-2.09.176-3.48 1.219-4.872v.349c2.436 4.87 4.871 9.569 7.133 14.44 5.394 8.524 14.788 17.398 22.617 23.314 4.177 3.13 7.482 8.524 12.707 10.438v-.523h-.349c-1.044-1.566-2.61-2.261-4.001-3.48-3.131-3.13-6.612-6.958-9.047-10.438-7.306-9.744-13.745-20.357-19.486-31.665-2.784-5.392-5.22-11.308-7.481-16.701-1.045-2.088-1.045-5.22-2.784-6.263-2.61 3.827-6.437 7.133-8.351 11.83-3.304 7.481-3.653 16.702-4.871 26.27-.696.176-.349 0-.697.35-6.089-1.567-8.177-8.005-10.265-13.398-5.22-13.919-6.089-36.363-.175-52.19 1.565-4.176 8.702-17.398 5.915-21.23-1.391-3.654-6.263-5.742-8.872-8.525-2.959-3.477-6.088-7.829-8.004-11.83-4.697-10.264-6.96-21.75-11.833-32.015-2.262-4.871-6.263-9.744-9.57-14.093-3.653-4.872-7.829-8.351-10.788-14.268-1.043-2.088-2.436-5.046-1.218-7.133.173-1.74 1.044-2.611 2.784-3.131 2.784-1.218 10.613 1.044 13.398 2.09 7.482 2.434 13.572 4.871 19.834 8.699 2.958 1.913 6.088 5.568 9.742 6.612h4.35c6.787 1.566 14.267.522 20.707 2.09 11.485 2.958 21.75 7.654 31.665 12.7 30.23 15.66 54.762 37.929 71.68 66.506 2.436 4.175 3.48 8.003 5.566 12.354 4.175 8.7 9.396 17.574 13.572 26.097 4.348 8.872 8.699 17.75 14.093 25.402 2.959 4.001 14.787 6.09 20.008 8.177 3.827 1.567 9.918 3.132 13.572 5.046 6.787 3.48 13.398 7.481 19.834 11.308 3.305 1.914 13.572 6.09 14.268 10.265z"/></svg>